name rise49.5252peak65.1548fall88.8305.mot
datacolumns 19
datarows 23
range 24.05657400000000 24.09323300000000
endheader
time	ground_force1_vx	ground_force1_vy	ground_force1_vz	ground_force1_px	ground_force1_py	ground_force1_pz	ground_force2_vx	ground_force2_vy	ground_force2_vz	ground_force2_px	ground_force2_py	ground_force2_pz	ground_torque1_x	ground_torque1_y	ground_torque1_z	ground_torque2_x	ground_torque2_y	ground_torque2_z	
24.05657400000000	-34.72950200000000	770.27337699999998	57.00450100000000	0.18675700000000	0.00000000000000	0.12680000000000	-17.31640600000000	54.47130600000000	6.23490100000000	0.38085900000000	0.00000000000000	-0.07373300000000	0.00000000000000	30.10739100000000	0.00000000000000	0.00000000000000	2.54323500000000	0.00000000000000	
24.05823400000000	-34.99704500000000	767.95530499999995	56.77895300000000	0.18621100000000	0.00000000000000	0.12669400000000	-18.49930100000000	61.46057800000000	6.75340900000000	0.38826900000000	0.00000000000000	-0.07370500000000	0.00000000000000	29.97241300000000	0.00000000000000	0.00000000000000	2.84766500000000	0.00000000000000	
24.05990400000000	-35.27169900000000	765.53464199999996	56.53055000000000	0.18566300000000	0.00000000000000	0.12658400000000	-19.42279300000000	68.36200100000001	7.19573100000000	0.39478000000000	0.00000000000000	-0.07370300000000	0.00000000000000	29.83226200000000	0.00000000000000	0.00000000000000	3.12872600000000	0.00000000000000	
24.06157000000000	-35.55416000000000	763.01224300000001	56.25913100000000	0.18511300000000	0.00000000000000	0.12647100000000	-20.07860000000000	75.13018800000000	7.55704800000000	0.40052700000000	0.00000000000000	-0.07372400000000	0.00000000000000	29.68713600000000	0.00000000000000	0.00000000000000	3.38192600000000	0.00000000000000	
24.06323400000000	-35.84510500000000	760.38897499999996	55.96458200000000	0.18455900000000	0.00000000000000	0.12635300000000	-20.47128200000000	81.74394800000000	7.83663800000000	0.40561900000000	0.00000000000000	-0.07376300000000	0.00000000000000	29.53724300000000	0.00000000000000	0.00000000000000	3.60461600000000	0.00000000000000	
24.06490500000000	-36.14518500000000	757.66571599999997	55.64684700000000	0.18400100000000	0.00000000000000	0.12623200000000	-20.61618500000000	88.20406800000001	8.03728900000000	0.41014700000000	0.00000000000000	-0.07381800000000	0.00000000000000	29.38280700000000	0.00000000000000	0.00000000000000	3.79582900000000	0.00000000000000	
24.06657500000000	-36.45502700000000	754.84334200000001	55.30591900000000	0.18344000000000	0.00000000000000	0.12610600000000	-20.53685400000000	94.52966800000000	8.16453800000000	0.41418700000000	0.00000000000000	-0.07388600000000	0.00000000000000	29.22406200000000	0.00000000000000	0.00000000000000	3.95601400000000	0.00000000000000	
24.06823400000000	-36.77522300000000	751.92271300000004	54.94184500000000	0.18287500000000	0.00000000000000	0.12597700000000	-20.26221500000000	100.75366800000000	8.22580700000000	0.41780300000000	0.00000000000000	-0.07396700000000	0.00000000000000	29.06125200000000	0.00000000000000	0.00000000000000	4.08669700000000	0.00000000000000	
24.06990500000000	-37.10633200000000	748.90466900000001	54.55472500000000	0.18230500000000	0.00000000000000	0.12584300000000	-19.82380200000000	106.91791700000000	8.22954000000000	0.42104800000000	0.00000000000000	-0.07405700000000	0.00000000000000	28.89463000000000	0.00000000000000	0.00000000000000	4.19011700000000	0.00000000000000	
24.07158000000000	-37.44887500000000	745.79001700000003	54.14471200000000	0.18173100000000	0.00000000000000	0.12570600000000	-19.25323800000000	113.06842100000000	8.18440200000000	0.42396800000000	0.00000000000000	-0.07415700000000	0.00000000000000	28.72446100000000	0.00000000000000	0.00000000000000	4.26887400000000	0.00000000000000	
24.07323400000000	-37.80332600000000	742.57952399999999	53.71201300000000	0.18115300000000	0.00000000000000	0.12556400000000	-18.58014200000000	119.25104100000000	8.09860400000000	0.42660400000000	0.00000000000000	-0.07426300000000	0.00000000000000	28.55101100000000	0.00000000000000	0.00000000000000	4.32561100000000	0.00000000000000	
24.07490800000000	-38.17011700000000	739.27390900000000	53.25688500000000	0.18057100000000	0.00000000000000	0.12541800000000	-17.83053600000000	125.50791900000000	7.97937000000000	0.42898800000000	0.00000000000000	-0.07437700000000	0.00000000000000	28.37455700000000	0.00000000000000	0.00000000000000	4.36275300000000	0.00000000000000	
24.07657200000000	-38.54962300000000	735.87383299999999	52.77963900000000	0.17998500000000	0.00000000000000	0.12526800000000	-17.02580500000000	131.87478300000001	7.83257900000000	0.43115000000000	0.00000000000000	-0.07449600000000	0.00000000000000	28.19537600000000	0.00000000000000	0.00000000000000	4.38231800000000	0.00000000000000	
24.07823700000000	-38.94217000000000	732.37989300000004	52.28063600000000	0.17939500000000	0.00000000000000	0.12511400000000	-16.18217700000000	138.37917899999999	7.66257100000000	0.43311500000000	0.00000000000000	-0.07461900000000	0.00000000000000	28.01374800000000	0.00000000000000	0.00000000000000	4.38579200000000	0.00000000000000	
24.07990200000000	-39.34802200000000	728.79261599999995	51.76028600000000	0.17880200000000	0.00000000000000	0.12495600000000	-15.31067500000000	145.03959200000000	7.47209700000000	0.43490600000000	0.00000000000000	-0.07474700000000	0.00000000000000	27.82995400000000	0.00000000000000	0.00000000000000	4.37407200000000	0.00000000000000	
24.08156800000000	-39.76738000000000	725.11245399999996	51.21904800000000	0.17820500000000	0.00000000000000	0.12479300000000	-14.41746500000000	151.86537200000001	7.26240600000000	0.43654100000000	0.00000000000000	-0.07487800000000	0.00000000000000	27.64427300000000	0.00000000000000	0.00000000000000	4.34747100000000	0.00000000000000	
24.08323800000000	-40.20038100000000	721.33977700000003	50.65742700000000	0.17760600000000	0.00000000000000	0.12462700000000	-13.50449400000000	158.85732300000001	7.03342200000000	0.43803900000000	0.00000000000000	-0.07501300000000	0.00000000000000	27.45698300000000	0.00000000000000	0.00000000000000	4.30577000000000	0.00000000000000	
24.08489900000000	-40.64709000000000	717.47486900000001	50.07597500000000	0.17700500000000	0.00000000000000	0.12445600000000	-12.57032000000000	166.00878000000000	6.78399000000000	0.43941400000000	0.00000000000000	-0.07514900000000	0.00000000000000	27.26835400000000	0.00000000000000	0.00000000000000	4.24829900000000	0.00000000000000	
24.08656900000000	-41.10750100000000	713.51792599999999	49.47528500000000	0.17640200000000	0.00000000000000	0.12428100000000	-11.61103400000000	173.30700899999999	6.51216400000000	0.44067800000000	0.00000000000000	-0.07528800000000	0.00000000000000	27.07865200000000	0.00000000000000	0.00000000000000	4.17404400000000	0.00000000000000	
24.08825200000000	-41.58153000000000	709.46905200000003	48.85599400000000	0.17579800000000	0.00000000000000	0.12410200000000	-10.62119700000000	180.73477800000001	6.21549300000000	0.44184500000000	0.00000000000000	-0.07542800000000	0.00000000000000	26.88813200000000	0.00000000000000	0.00000000000000	4.08176500000000	0.00000000000000	
24.08990400000000	-42.06901500000000	705.32825700000001	48.21877500000000	0.17519500000000	0.00000000000000	0.12391900000000	-9.59470300000000	188.27192400000001	5.89130400000000	0.44292300000000	0.00000000000000	-0.07556900000000	0.00000000000000	26.69704000000000	0.00000000000000	0.00000000000000	3.97010700000000	0.00000000000000	
24.09157100000000	-42.56971200000000	701.09545600000001	47.56434100000000	0.17459100000000	0.00000000000000	0.12373200000000	-8.52554100000000	195.89684099999999	5.53694500000000	0.44392200000000	0.00000000000000	-0.07571100000000	0.00000000000000	26.50561100000000	0.00000000000000	0.00000000000000	3.83770800000000	0.00000000000000	
24.09323300000000	-43.08329300000000	696.77047000000005	46.89343600000000	0.17399000000000	0.00000000000000	0.12354100000000	-7.40839200000000	203.58775600000001	5.14998400000000	0.44485000000000	0.00000000000000	-0.07585400000000	0.00000000000000	26.31406300000000	0.00000000000000	0.00000000000000	3.68328600000000	0.00000000000000	
